# xmcd CD database file generated by OrangeCD 5.2
#
# Track frame offsets:
#	182
#	16317
#	24712
#	37530
#	57737
#	71225
#	87192
#	94227
#	107482
#	118752
#	134135
#	145167
#	160577
#	180172
#
# Disc length: 2725 seconds
#
# Revision: 2
# Processed by: cddbd v1.5PL3 Copyright (c) Steve Scherf et al.
# Submitted via: OrangeCD 5.2
#
DISCID=b90aa30e
DTITLE=Various Artist - C96
DYEAR=1996
DGENRE=
TTITLE0=Tiger - The Rose
TTITLE1=Dweeb - RETARD
TTITLE2=Urusei Yatsura - Skull In Action
TTITLE3=Broadcast - Lights Out
TTITLE4=Magoo - Struck A Chord
TTITLE5=Backwater - Hot Rhythm
TTITLE6=Mogwai - A-70
TTITLE7=Comet Gain - Dreams Of A Working Girl
TTITLE8=The Delgados - Fourth Channel
TTITLE9=Baby Bird - Bad Shave (ii)
TTITLE10=Spare Snare - Aftertaste
TTITLE11=Ligament - STSLAJ
TTITLE12=Tunic - Manhattan Skyline
TTITLE13=Quickspace Supersport - Song For NME
EXTD=
EXTT0=
EXTT1=
EXTT2=
EXTT3=
EXTT4=
EXTT5=
EXTT6=
EXTT7=
EXTT8=
EXTT9=
EXTT10=
EXTT11=
EXTT12=
EXTT13=
PLAYORDER=
